<?xml version="1.0" encoding="UTF-8"?>
<svg xmlns="http://www.w3.org/2000/svg" xmlns:xlink="http://www.w3.org/1999/xlink" width="20px" height="20px" viewBox="0 0 20 20" version="1.1">
<g id="surface1">
<path style=" stroke:none;fill-rule:nonzero;fill:rgb(0%,0%,0%);fill-opacity:1;" d="M 7.144531 11.25 L 11.832031 11.25 L 11.832031 10 L 7.144531 10 Z M 7.144531 9.375 L 15.375 9.375 L 15.375 8.125 L 7.144531 8.125 Z M 7.144531 7.5 L 15.375 7.5 L 15.375 6.25 L 7.144531 6.25 Z M 5.417969 15.832031 C 5.082031 15.832031 4.792969 15.707031 4.542969 15.457031 C 4.292969 15.207031 4.167969 14.917969 4.167969 14.582031 L 4.167969 2.917969 C 4.167969 2.582031 4.292969 2.292969 4.542969 2.042969 C 4.792969 1.792969 5.082031 1.667969 5.417969 1.667969 L 17.082031 1.667969 C 17.417969 1.667969 17.707031 1.792969 17.957031 2.042969 C 18.207031 2.292969 18.332031 2.582031 18.332031 2.917969 L 18.332031 14.582031 C 18.332031 14.917969 18.207031 15.207031 17.957031 15.457031 C 17.707031 15.707031 17.417969 15.832031 17.082031 15.832031 Z M 5.417969 14.582031 L 17.082031 14.582031 L 17.082031 2.917969 L 5.417969 2.917969 Z M 2.917969 18.332031 C 2.582031 18.332031 2.292969 18.207031 2.042969 17.957031 C 1.792969 17.707031 1.667969 17.417969 1.667969 17.082031 L 1.667969 4.167969 L 2.917969 4.167969 L 2.917969 17.082031 L 15.832031 17.082031 L 15.832031 18.332031 Z M 5.417969 2.917969 L 5.417969 14.582031 Z M 5.417969 2.917969 "/>
</g>
</svg>
