<?xml version="1.0" encoding="UTF-8"?>
<svg xmlns="http://www.w3.org/2000/svg" xmlns:xlink="http://www.w3.org/1999/xlink" width="20px" height="20px" viewBox="0 0 20 20" version="1.1">
<g id="surface1">
<path style=" stroke:none;fill-rule:nonzero;fill:rgb(0%,0%,0%);fill-opacity:1;" d="M 10 9.980469 C 9.082031 9.980469 8.332031 9.6875 7.75 9.105469 C 7.167969 8.519531 6.875 7.769531 6.875 6.855469 C 6.875 5.9375 7.167969 5.1875 7.75 4.605469 C 8.332031 4.019531 9.082031 3.730469 10 3.730469 C 10.917969 3.730469 11.667969 4.019531 12.25 4.605469 C 12.832031 5.1875 13.125 5.9375 13.125 6.855469 C 13.125 7.769531 12.832031 8.519531 12.25 9.105469 C 11.667969 9.6875 10.917969 9.980469 10 9.980469 Z M 3.332031 16.667969 L 3.332031 14.707031 C 3.332031 14.179688 3.464844 13.730469 3.730469 13.355469 C 3.992188 12.980469 4.332031 12.695312 4.75 12.5 C 5.679688 12.082031 6.574219 11.769531 7.425781 11.5625 C 8.28125 11.355469 9.140625 11.25 10 11.25 C 10.859375 11.25 11.714844 11.359375 12.5625 11.574219 C 13.410156 11.789062 14.296875 12.097656 15.230469 12.5 C 15.660156 12.695312 16.007812 12.980469 16.269531 13.355469 C 16.535156 13.730469 16.667969 14.179688 16.667969 14.707031 L 16.667969 16.667969 Z M 4.582031 15.417969 L 15.417969 15.417969 L 15.417969 14.707031 C 15.417969 14.484375 15.351562 14.273438 15.21875 14.074219 C 15.085938 13.871094 14.921875 13.722656 14.730469 13.625 C 13.839844 13.195312 13.027344 12.898438 12.292969 12.738281 C 11.554688 12.578125 10.792969 12.5 10 12.5 C 9.207031 12.5 8.4375 12.578125 7.6875 12.738281 C 6.9375 12.898438 6.125 13.195312 5.25 13.625 C 5.054688 13.722656 4.894531 13.871094 4.769531 14.074219 C 4.644531 14.273438 4.582031 14.484375 4.582031 14.707031 Z M 10 8.730469 C 10.542969 8.730469 10.988281 8.550781 11.34375 8.199219 C 11.699219 7.84375 11.875 7.394531 11.875 6.855469 C 11.875 6.3125 11.699219 5.863281 11.34375 5.511719 C 10.988281 5.15625 10.542969 4.980469 10 4.980469 C 9.457031 4.980469 9.011719 5.15625 8.65625 5.511719 C 8.300781 5.863281 8.125 6.3125 8.125 6.855469 C 8.125 7.394531 8.300781 7.84375 8.65625 8.199219 C 9.011719 8.550781 9.457031 8.730469 10 8.730469 Z M 10 6.855469 Z M 10 15.417969 Z M 10 15.417969 "/>
</g>
</svg>
